<svg xmlns="http://www.w3.org/2000/svg" width="50" height="50" viewBox="0 0 50 50" fill="none"> <rect width="50" height="50" rx="25" fill="url(#paint0_linear)"/> <g clip-path="url(#clip0)" filter="url(#filter0_d)"> <path d="M33.6747 23.6516C33.7023 20.4089 30.9404 17.4362 27.5181 17.0251C27.45 17.0171 27.3759 17.0048 27.2974 16.9918C27.1279 16.9637 26.9527 16.9349 26.7759 16.9349C26.0745 16.9349 25.887 17.4276 25.8377 17.7214C25.7897 18.0071 25.8354 18.2471 25.9735 18.4349C26.2058 18.7507 26.6145 18.8068 26.9428 18.8517C27.039 18.865 27.1298 18.8774 27.2058 18.8944C30.2807 19.5815 31.316 20.6617 31.822 23.7104C31.8344 23.7849 31.8399 23.8767 31.8459 23.9741C31.8679 24.3385 31.9139 25.0967 32.7291 25.0967H32.7292C32.797 25.0967 32.8699 25.0909 32.9459 25.0793C33.7049 24.9639 33.6812 24.2709 33.6697 23.9379C33.6665 23.8441 33.6634 23.7554 33.6714 23.6964C33.6735 23.6815 33.6746 23.6666 33.6747 23.6516Z" fill="black"/> <path d="M26.5769 15.8349C26.668 15.8414 26.7542 15.8477 26.826 15.8587C31.8752 16.6352 34.1973 19.0275 34.8408 24.1162C34.8517 24.2027 34.8534 24.3082 34.8552 24.4199C34.8617 24.8175 34.8749 25.6446 35.7631 25.6617L35.7907 25.662C36.0692 25.662 36.2908 25.578 36.4493 25.4121C36.7258 25.1229 36.7065 24.6933 36.691 24.348C36.6872 24.2633 36.6835 24.1835 36.6845 24.1136C36.7487 18.9092 32.2437 14.1899 27.0439 14.0144C27.0223 14.0136 27.0017 14.0148 26.9809 14.0177C26.9707 14.0192 26.9518 14.0211 26.9194 14.0211C26.8675 14.0211 26.8037 14.0166 26.7361 14.012C26.6543 14.0064 26.5616 14 26.4676 14C25.6395 14 25.4821 14.5886 25.4619 14.9394C25.4155 15.7503 26.1999 15.8074 26.5769 15.8349Z" fill="black"/> <path d="M34.5972 30.6931C34.4898 30.6111 34.3788 30.5262 34.2749 30.4425C33.7236 29.9988 33.1371 29.5899 32.5699 29.1944C32.4522 29.1124 32.3345 29.0303 32.2172 28.9481C31.4906 28.4377 30.8374 28.1897 30.2203 28.1897C29.389 28.1897 28.6643 28.649 28.0662 29.5546C27.8012 29.9561 27.4797 30.1513 27.0835 30.1513C26.8492 30.1513 26.583 30.0845 26.2923 29.9526C23.9471 28.8891 22.2725 27.2585 21.3148 25.1061C20.8519 24.0659 21.002 23.3859 21.8167 22.8324C22.2793 22.5184 23.1405 21.9339 23.0795 20.8144C23.0104 19.5432 20.2055 15.7183 19.0238 15.2839C18.5234 15.0999 17.9977 15.0981 17.4584 15.2796C16.0998 15.7363 15.1249 16.5384 14.6388 17.5989C14.169 18.6237 14.1902 19.827 14.7001 21.0787C16.1743 24.6977 18.2468 27.853 20.8605 30.4568C23.4188 33.0056 26.5631 35.0935 30.2061 36.6621C30.5345 36.8034 30.8789 36.8805 31.1304 36.9367C31.2161 36.956 31.2901 36.9724 31.344 36.9872C31.3737 36.9953 31.4043 36.9996 31.4349 36.9999L31.4637 37.0001C31.4638 37.0001 31.4637 37.0001 31.4638 37.0001C33.1772 37.0001 35.2346 35.4343 35.8665 33.6493C36.42 32.0863 35.4093 31.3138 34.5972 30.6931Z" fill="black"/> <path d="M27.3349 19.9689C27.0415 19.9763 26.431 19.9914 26.2168 20.6132C26.1166 20.9038 26.1286 21.1561 26.2525 21.3631C26.4344 21.6668 26.7828 21.7599 27.0997 21.8109C28.2491 21.9954 28.8394 22.6309 28.9574 23.8109C29.0123 24.3611 29.3828 24.7454 29.8585 24.7454H29.8586C29.8937 24.7454 29.9297 24.7433 29.9654 24.7389C30.5376 24.6709 30.8149 24.2505 30.7899 23.4896C30.799 22.6956 30.3834 21.7941 29.6767 21.076C28.9674 20.3557 28.1125 19.9501 27.3349 19.9689Z" fill="black"/> </g> <defs> <filter id="filter0_d" x="7" y="11" width="37" height="37" filterUnits="userSpaceOnUse" color-interpolation-filters="sRGB"> <feFlood flood-opacity="0" result="BackgroundImageFix"/> <feColorMatrix in="SourceAlpha" type="matrix" values="0 0 0 0 0 0 0 0 0 0 0 0 0 0 0 0 0 0 127 0"/> <feOffset dy="4"/> <feGaussianBlur stdDeviation="3.5"/> <feColorMatrix type="matrix" values="0 0 0 0 0.933333 0 0 0 0 0.186667 0 0 0 0 0.353519 0 0 0 0.15 0"/> <feBlend mode="normal" in2="BackgroundImageFix" result="effect1_dropShadow"/> <feBlend mode="normal" in="SourceGraphic" in2="effect1_dropShadow" result="shape"/> </filter> <linearGradient id="paint0_linear" x1="1.81818" y1="7.04226" x2="54.9873" y2="12.9104" gradientUnits="userSpaceOnUse"> <stop stop-color="#FACD58"/> <stop offset="1" stop-color="#EFBC3F"/> </linearGradient> <clipPath id="clip0"> <rect width="23" height="23" fill="white" transform="translate(14 14)"/> </clipPath> </defs> </svg>