<svg xmlns="http://www.w3.org/2000/svg" width="1em" viewBox="0 0 24 14" height="1em" enable-background="new 0 0 24 24">
  <defs id="defs8"/>
  <path style="fill:#4b729f" d="M 19.915,8.028 C 19.527,7.538 19.638,7.32 19.915,6.882 19.92,6.877 23.123,2.451 23.453,0.95 L 23.455,0.949 C 23.619,0.402 23.455,0 22.662,0 h -2.624 c -0.668,0 -0.976,0.345 -1.141,0.731 0,0 -1.336,3.198 -3.226,5.271 -0.61,0.599 -0.892,0.791 -1.225,0.791 -0.164,0 -0.419,-0.192 -0.419,-0.739 V 0.949 C 14.027,0.293 13.84,0 13.287,0 H 9.161 C 8.742,0 8.493,0.306 8.493,0.591 c 0,0.622 0.945,0.765 1.043,2.515 V 6.903 C 9.536,7.735 9.385,7.888 9.05,7.888 8.158,7.888 5.993,4.677 4.71,1.002 4.451,0.289 4.198,0.001 3.525,0.001 H 0.9 C 0.151,0.001 0,0.346 0,0.732 0,1.414 0.892,4.805 4.148,9.285 6.318,12.343 9.374,14 12.154,14 c 1.671,0 1.875,-0.368 1.875,-1.001 0,-2.922 -0.151,-3.198 0.686,-3.198 0.388,0 1.056,0.192 2.616,1.667 1.783,1.749 2.076,2.532 3.074,2.532 h 2.624 c 0.748,0 1.127,-0.368 0.909,-1.094 -0.499,-1.527 -3.871,-4.668 -4.023,-4.878 z"/>
</svg>